<mxfile host="app.diagrams.net" modified="2024-04-26T14:46:33.582Z" agent="Mozilla/5.0 (X11; Ubuntu; Linux x86_64; rv:125.0) Gecko/20100101 Firefox/125.0" version="24.3.0" etag="8ge1hGkbTXlv1eds2qyX" type="github">
  <diagram name="Page-1" id="ZpEAlFohvguMkFmkGXR5">
    <mxGraphModel>
      <root>
        <mxCell id="0" />
        <mxCell id="1" parent="0" />
      </root>
    </mxGraphModel>
  </diagram>
</mxfile>
